<svg xmlns="http://www.w3.org/2000/svg" xmlns:xlink="http://www.w3.org/1999/xlink" width="500" zoomAndPan="magnify" viewBox="0 0 375 374.999991" height="500" preserveAspectRatio="xMidYMid meet" version="1.2">
<defs/>
<g id="72c33b82d2">
<g style="fill:#ffffff;fill-opacity:1;">
<g transform="translate(0.826969, 226.79958)">
<path style="stroke:none" d="M 37.984375 -66.796875 C 42.242188 -66.796875 46.203125 -65.675781 49.859375 -63.4375 C 53.515625 -61.207031 56.488281 -58.207031 58.78125 -54.4375 C 61.070312 -50.675781 62.21875 -46.445312 62.21875 -41.75 L 62.21875 0 L 52.0625 0 L 52.0625 -41.75 C 52.0625 -45.894531 50.613281 -49.414062 47.71875 -52.3125 C 44.832031 -55.207031 41.316406 -56.65625 37.171875 -56.65625 C 33.015625 -56.65625 29.460938 -55.207031 26.515625 -52.3125 C 23.578125 -49.414062 22.109375 -45.894531 22.109375 -41.75 L 22.109375 0 L 11.953125 0 L 11.953125 -65.484375 L 22.109375 -65.484375 L 22.109375 -60.25 C 24.285156 -62.320312 26.710938 -63.929688 29.390625 -65.078125 C 32.066406 -66.222656 34.929688 -66.796875 37.984375 -66.796875 Z M 37.984375 -66.796875 "/>
</g>
</g>
<g style="fill:#ffffff;fill-opacity:1;">
<g transform="translate(74.179037, 226.79958)">
<path style="stroke:none" d="M 41.421875 1.3125 C 35.203125 1.3125 29.5 -0.210938 24.3125 -3.265625 C 19.125 -6.328125 15.003906 -10.445312 11.953125 -15.625 C 8.898438 -20.8125 7.375 -26.519531 7.375 -32.75 C 7.375 -39.082031 8.898438 -44.8125 11.953125 -49.9375 C 15.003906 -55.070312 19.125 -59.164062 24.3125 -62.21875 C 29.5 -65.269531 35.203125 -66.796875 41.421875 -66.796875 C 47.753906 -66.796875 53.484375 -65.269531 58.609375 -62.21875 C 63.742188 -59.164062 67.835938 -55.070312 70.890625 -49.9375 C 73.953125 -44.8125 75.484375 -39.082031 75.484375 -32.75 C 75.484375 -26.519531 73.953125 -20.8125 70.890625 -15.625 C 67.835938 -10.445312 63.742188 -6.328125 58.609375 -3.265625 C 53.484375 -0.210938 47.753906 1.3125 41.421875 1.3125 Z M 41.421875 -8.84375 C 45.785156 -8.84375 49.769531 -9.90625 53.375 -12.03125 C 56.976562 -14.164062 59.867188 -17.0625 62.046875 -20.71875 C 64.234375 -24.375 65.328125 -28.382812 65.328125 -32.75 C 65.328125 -37.21875 64.234375 -41.253906 62.046875 -44.859375 C 59.867188 -48.460938 56.976562 -51.328125 53.375 -53.453125 C 49.769531 -55.585938 45.785156 -56.65625 41.421875 -56.65625 C 37.054688 -56.65625 33.046875 -55.585938 29.390625 -53.453125 C 25.734375 -51.328125 22.835938 -48.460938 20.703125 -44.859375 C 18.578125 -41.253906 17.515625 -37.21875 17.515625 -32.75 C 17.515625 -28.382812 18.578125 -24.375 20.703125 -20.71875 C 22.835938 -17.0625 25.734375 -14.164062 29.390625 -12.03125 C 33.046875 -9.90625 37.054688 -8.84375 41.421875 -8.84375 Z M 41.421875 -8.84375 "/>
</g>
</g>
<g style="fill:#ffffff;fill-opacity:1;">
<g transform="translate(157.027575, 226.79958)">
<path style="stroke:none" d="M 42.078125 -55.671875 L 24.5625 -55.671875 L 24.5625 -18.5 C 24.5625 -15.445312 25.539062 -13.019531 27.5 -11.21875 C 29.46875 -9.414062 31.765625 -8.515625 34.390625 -8.515625 L 41.921875 -8.515625 L 41.921875 -0.8125 C 41.046875 -0.269531 39.785156 0.21875 38.140625 0.65625 C 36.503906 1.09375 34.867188 1.3125 33.234375 1.3125 C 29.847656 1.3125 26.734375 0.492188 23.890625 -1.140625 C 21.054688 -2.785156 18.765625 -5.023438 17.015625 -7.859375 C 15.273438 -10.691406 14.40625 -13.800781 14.40625 -17.1875 L 14.40625 -55.671875 L 3.4375 -55.671875 L 3.4375 -65.484375 L 14.40625 -65.484375 L 14.40625 -93.984375 L 24.5625 -93.984375 L 24.5625 -65.484375 L 42.078125 -65.484375 Z M 42.078125 -55.671875 "/>
</g>
</g>
<g style="fill:#ffffff;fill-opacity:1;">
<g transform="translate(204.509948, 226.79958)">
<path style="stroke:none" d="M 75.484375 -33.40625 L 75.3125 -31.265625 L 17.515625 -31.265625 C 17.734375 -27.117188 18.929688 -23.328125 21.109375 -19.890625 C 23.296875 -16.453125 26.160156 -13.75 29.703125 -11.78125 C 33.253906 -9.820312 37.160156 -8.84375 41.421875 -8.84375 C 46.335938 -8.84375 50.785156 -10.148438 54.765625 -12.765625 C 58.753906 -15.390625 61.617188 -18.832031 63.359375 -23.09375 L 74.171875 -23.09375 C 72.753906 -18.394531 70.460938 -14.21875 67.296875 -10.5625 C 64.128906 -6.90625 60.332031 -4.007812 55.90625 -1.875 C 51.488281 0.25 46.660156 1.3125 41.421875 1.3125 C 35.203125 1.3125 29.5 -0.210938 24.3125 -3.265625 C 19.125 -6.328125 15.003906 -10.445312 11.953125 -15.625 C 8.898438 -20.8125 7.375 -26.519531 7.375 -32.75 C 7.375 -39.082031 8.898438 -44.8125 11.953125 -49.9375 C 15.003906 -55.070312 19.125 -59.164062 24.3125 -62.21875 C 29.5 -65.269531 35.203125 -66.796875 41.421875 -66.796875 C 47.640625 -66.796875 53.285156 -65.320312 58.359375 -62.375 C 63.441406 -59.425781 67.535156 -55.441406 70.640625 -50.421875 C 73.753906 -45.398438 75.367188 -39.726562 75.484375 -33.40625 Z M 41.421875 -56.65625 C 36.179688 -56.65625 31.515625 -55.148438 27.421875 -52.140625 C 23.328125 -49.140625 20.460938 -45.238281 18.828125 -40.4375 L 63.859375 -40.4375 C 62.328125 -45.238281 59.515625 -49.140625 55.421875 -52.140625 C 51.328125 -55.148438 46.660156 -56.65625 41.421875 -56.65625 Z M 41.421875 -56.65625 "/>
</g>
</g>
<g style="fill:#ffffff;fill-opacity:1;">
<g transform="translate(286.703575, 226.79958)">
<path style="stroke:none" d="M 65.328125 -120.5 L 75.484375 -120.5 L 75.484375 0 L 65.328125 0 L 65.328125 -8.515625 C 62.273438 -5.453125 58.703125 -3.046875 54.609375 -1.296875 C 50.515625 0.441406 46.117188 1.3125 41.421875 1.3125 C 35.203125 1.3125 29.5 -0.210938 24.3125 -3.265625 C 19.125 -6.328125 15.003906 -10.445312 11.953125 -15.625 C 8.898438 -20.8125 7.375 -26.519531 7.375 -32.75 C 7.375 -39.082031 8.898438 -44.8125 11.953125 -49.9375 C 15.003906 -55.070312 19.125 -59.164062 24.3125 -62.21875 C 29.5 -65.269531 35.203125 -66.796875 41.421875 -66.796875 C 46.117188 -66.796875 50.515625 -65.921875 54.609375 -64.171875 C 58.703125 -62.429688 62.273438 -60.035156 65.328125 -56.984375 Z M 41.421875 -8.84375 C 45.785156 -8.84375 49.769531 -9.90625 53.375 -12.03125 C 56.976562 -14.164062 59.867188 -17.0625 62.046875 -20.71875 C 64.234375 -24.375 65.328125 -28.382812 65.328125 -32.75 C 65.328125 -37.21875 64.234375 -41.253906 62.046875 -44.859375 C 59.867188 -48.460938 56.976562 -51.328125 53.375 -53.453125 C 49.769531 -55.585938 45.785156 -56.65625 41.421875 -56.65625 C 37.054688 -56.65625 33.046875 -55.585938 29.390625 -53.453125 C 25.734375 -51.328125 22.835938 -48.460938 20.703125 -44.859375 C 18.578125 -41.253906 17.515625 -37.21875 17.515625 -32.75 C 17.515625 -28.382812 18.578125 -24.375 20.703125 -20.71875 C 22.835938 -17.0625 25.734375 -14.164062 29.390625 -12.03125 C 33.046875 -9.90625 37.054688 -8.84375 41.421875 -8.84375 Z M 41.421875 -8.84375 "/>
</g>
</g>
</g>
</svg>
