<svg xmlns="http://www.w3.org/2000/svg" xmlns:xlink="http://www.w3.org/1999/xlink" width="500" zoomAndPan="magnify" viewBox="0 0 375 374.999991" height="500" preserveAspectRatio="xMidYMid meet" version="1.2"><defs><clipPath id="3dc0792f43"><path d="M 12.335938 89.617188 L 362.824219 89.617188 L 362.824219 169.800781 L 12.335938 169.800781 Z M 12.335938 89.617188 "/></clipPath><clipPath id="7e787e11a8"><path d="M 362.664062 118.867188 L 362.664062 140.550781 C 362.664062 156.703125 349.570312 169.800781 333.414062 169.800781 L 41.585938 169.800781 C 25.429688 169.800781 12.335938 156.703125 12.335938 140.550781 L 12.335938 118.867188 C 12.335938 102.710938 25.429688 89.617188 41.585938 89.617188 L 333.414062 89.617188 C 349.570312 89.617188 362.664062 102.710938 362.664062 118.867188 Z M 362.664062 118.867188 "/></clipPath><clipPath id="7fb6605d5b"><path d="M 285.273438 89.449219 L 362.671875 89.449219 L 362.671875 285.359375 L 285.273438 285.359375 Z M 285.273438 89.449219 "/></clipPath><clipPath id="46fa657107"><path d="M 314.523438 89.59375 L 333.421875 89.59375 C 349.574219 89.59375 362.671875 102.6875 362.671875 118.84375 L 362.671875 256.109375 C 362.671875 272.265625 349.574219 285.359375 333.421875 285.359375 L 314.523438 285.359375 C 298.371094 285.359375 285.273438 272.265625 285.273438 256.109375 L 285.273438 118.84375 C 285.273438 102.6875 298.371094 89.59375 314.523438 89.59375 Z M 314.523438 89.59375 "/></clipPath><clipPath id="02678c7f6f"><path d="M 12 185.4375 L 273.910156 185.4375 L 273.910156 285.378906 L 12 285.378906 Z M 12 185.4375 "/></clipPath><clipPath id="aa0f4fcfa8"><path d="M 12.324219 256.128906 L 12.324219 214.6875 C 12.324219 198.535156 25.421875 185.4375 41.574219 185.4375 L 244.660156 185.4375 C 260.8125 185.4375 273.910156 198.535156 273.910156 214.6875 L 273.910156 256.128906 C 273.910156 272.285156 260.8125 285.378906 244.660156 285.378906 L 41.574219 285.378906 C 25.421875 285.378906 12.324219 272.285156 12.324219 256.128906 Z M 12.324219 256.128906 "/></clipPath><clipPath id="1b877bfe5c"><path d="M 232.550781 115.46875 L 339.800781 115.46875 L 339.800781 222.71875 L 232.550781 222.71875 Z M 232.550781 115.46875 "/></clipPath></defs><g id="7b25dd8328"><g clip-rule="nonzero" clip-path="url(#3dc0792f43)"><g clip-rule="nonzero" clip-path="url(#7e787e11a8)"><path style=" stroke:none;fill-rule:nonzero;fill:#5e17eb;fill-opacity:1;" d="M 12.335938 89.617188 L 362.511719 89.617188 L 362.511719 169.800781 L 12.335938 169.800781 Z M 12.335938 89.617188 "/></g></g><g clip-rule="nonzero" clip-path="url(#7fb6605d5b)"><g clip-rule="nonzero" clip-path="url(#46fa657107)"><path style=" stroke:none;fill-rule:nonzero;fill:#5e17eb;fill-opacity:1;" d="M 285.273438 285.359375 L 285.273438 89.449219 L 362.671875 89.449219 L 362.671875 285.359375 Z M 285.273438 285.359375 "/></g></g><g clip-rule="nonzero" clip-path="url(#02678c7f6f)"><g clip-rule="nonzero" clip-path="url(#aa0f4fcfa8)"><path style=" stroke:none;fill-rule:nonzero;fill:#5e17eb;fill-opacity:1;" d="M 273.910156 285.378906 L 12.34375 285.378906 L 12.34375 185.4375 L 273.910156 185.4375 Z M 273.910156 285.378906 "/></g></g><g clip-rule="nonzero" clip-path="url(#1b877bfe5c)"><path style=" stroke:none;fill-rule:nonzero;fill:#5e17eb;fill-opacity:1;" d="M 287.3125 144.074219 C 287.476562 145.570312 287.765625 147.039062 288.175781 148.484375 C 288.589844 149.929688 289.121094 151.332031 289.769531 152.6875 C 290.417969 154.042969 291.179688 155.332031 292.046875 156.558594 C 292.917969 157.785156 293.882812 158.929688 294.945312 159.992188 C 296.007812 161.054688 297.152344 162.019531 298.378906 162.890625 C 299.605469 163.757812 300.894531 164.519531 302.25 165.167969 C 303.605469 165.816406 305.007812 166.347656 306.453125 166.761719 C 307.898438 167.171875 309.367188 167.460938 310.863281 167.625 C 318.089844 168.417969 327.421875 168.929688 339.46875 168.929688 C 327.421875 168.929688 318.089844 169.441406 310.863281 170.230469 C 309.367188 170.394531 307.898438 170.683594 306.453125 171.09375 C 305.007812 171.507812 303.605469 172.039062 302.25 172.6875 C 300.894531 173.339844 299.605469 174.097656 298.378906 174.964844 C 297.152344 175.835938 296.007812 176.800781 294.945312 177.863281 C 293.882812 178.925781 292.917969 180.070312 292.046875 181.296875 C 291.179688 182.523438 290.417969 183.816406 289.769531 185.171875 C 289.121094 186.527344 288.589844 187.925781 288.175781 189.371094 C 287.765625 190.816406 287.476562 192.285156 287.3125 193.78125 C 286.519531 201.007812 286.007812 210.339844 286.007812 222.386719 C 286.007812 210.339844 285.496094 201.007812 284.707031 193.78125 C 284.542969 192.285156 284.253906 190.816406 283.84375 189.371094 C 283.429688 187.925781 282.898438 186.527344 282.25 185.171875 C 281.597656 183.816406 280.839844 182.523438 279.972656 181.296875 C 279.101562 180.070312 278.136719 178.925781 277.074219 177.863281 C 276.011719 176.800781 274.867188 175.835938 273.640625 174.964844 C 272.414062 174.097656 271.121094 173.339844 269.765625 172.6875 C 268.410156 172.039062 267.011719 171.507812 265.566406 171.09375 C 264.121094 170.683594 262.652344 170.394531 261.15625 170.230469 C 253.929688 169.441406 244.597656 168.929688 232.550781 168.929688 C 244.597656 168.929688 253.929688 168.417969 261.15625 167.625 C 262.652344 167.460938 264.121094 167.171875 265.566406 166.761719 C 267.011719 166.347656 268.410156 165.816406 269.765625 165.167969 C 271.121094 164.519531 272.414062 163.757812 273.640625 162.890625 C 274.867188 162.019531 276.011719 161.054688 277.074219 159.992188 C 278.136719 158.929688 279.101562 157.785156 279.972656 156.558594 C 280.839844 155.332031 281.597656 154.042969 282.25 152.6875 C 282.898438 151.332031 283.429688 149.929688 283.84375 148.484375 C 284.253906 147.039062 284.542969 145.570312 284.707031 144.074219 C 285.496094 136.847656 286.007812 127.515625 286.007812 115.46875 C 286.007812 127.515625 286.519531 136.847656 287.3125 144.074219 Z M 287.3125 144.074219 "/></g></g></svg>