<svg xmlns="http://www.w3.org/2000/svg" xmlns:xlink="http://www.w3.org/1999/xlink" width="500" zoomAndPan="magnify" viewBox="0 0 375 374.999991" height="500" preserveAspectRatio="xMidYMid meet" version="1.2"><defs><clipPath id="343654626b"><path d="M 12.335938 163.722656 L 362.824219 163.722656 L 362.824219 243.902344 L 12.335938 243.902344 Z M 12.335938 163.722656 "/></clipPath><clipPath id="7b82fa2a85"><path d="M 362.664062 192.972656 L 362.664062 214.652344 C 362.664062 230.808594 349.570312 243.902344 333.414062 243.902344 L 41.585938 243.902344 C 25.429688 243.902344 12.335938 230.808594 12.335938 214.652344 L 12.335938 192.972656 C 12.335938 176.816406 25.429688 163.722656 41.585938 163.722656 L 333.414062 163.722656 C 349.570312 163.722656 362.664062 176.816406 362.664062 192.972656 Z M 362.664062 192.972656 "/></clipPath><clipPath id="b45fde3058"><path d="M 285.273438 163.554688 L 362.671875 163.554688 L 362.671875 359.464844 L 285.273438 359.464844 Z M 285.273438 163.554688 "/></clipPath><clipPath id="328d4402e2"><path d="M 314.523438 163.699219 L 333.421875 163.699219 C 349.574219 163.699219 362.671875 176.792969 362.671875 192.949219 L 362.671875 330.214844 C 362.671875 346.367188 349.574219 359.464844 333.421875 359.464844 L 314.523438 359.464844 C 298.371094 359.464844 285.273438 346.367188 285.273438 330.214844 L 285.273438 192.949219 C 285.273438 176.792969 298.371094 163.699219 314.523438 163.699219 Z M 314.523438 163.699219 "/></clipPath><clipPath id="910c24c23e"><path d="M 12 259.523438 L 273.886719 259.523438 L 273.886719 359.464844 L 12 359.464844 Z M 12 259.523438 "/></clipPath><clipPath id="8364202483"><path d="M 12.300781 330.214844 L 12.300781 288.773438 C 12.300781 272.617188 25.398438 259.523438 41.550781 259.523438 L 244.636719 259.523438 C 260.792969 259.523438 273.886719 272.617188 273.886719 288.773438 L 273.886719 330.214844 C 273.886719 346.367188 260.792969 359.464844 244.636719 359.464844 L 41.550781 359.464844 C 25.398438 359.464844 12.300781 346.367188 12.300781 330.214844 Z M 12.300781 330.214844 "/></clipPath><clipPath id="c504e4914e"><path d="M 232.550781 189.574219 L 338.636719 189.574219 L 338.636719 295.660156 L 232.550781 295.660156 Z M 232.550781 189.574219 "/></clipPath></defs><g id="24d79a9c06"><g clip-rule="nonzero" clip-path="url(#343654626b)"><g clip-rule="nonzero" clip-path="url(#7b82fa2a85)"><path style=" stroke:none;fill-rule:nonzero;fill:#5e17eb;fill-opacity:1;" d="M 12.335938 163.722656 L 362.511719 163.722656 L 362.511719 243.902344 L 12.335938 243.902344 Z M 12.335938 163.722656 "/></g></g><g clip-rule="nonzero" clip-path="url(#b45fde3058)"><g clip-rule="nonzero" clip-path="url(#328d4402e2)"><path style=" stroke:none;fill-rule:nonzero;fill:#5e17eb;fill-opacity:1;" d="M 285.273438 359.464844 L 285.273438 163.554688 L 362.671875 163.554688 L 362.671875 359.464844 Z M 285.273438 359.464844 "/></g></g><g clip-rule="nonzero" clip-path="url(#910c24c23e)"><g clip-rule="nonzero" clip-path="url(#8364202483)"><path style=" stroke:none;fill-rule:nonzero;fill:#5e17eb;fill-opacity:1;" d="M 273.886719 359.464844 L 12.320312 359.464844 L 12.320312 259.523438 L 273.886719 259.523438 Z M 273.886719 359.464844 "/></g></g><g clip-rule="nonzero" clip-path="url(#c504e4914e)"><path style=" stroke:none;fill-rule:nonzero;fill:#5e17eb;fill-opacity:1;" d="M 286.890625 217.957031 C 287.054688 219.441406 287.339844 220.898438 287.746094 222.335938 C 288.15625 223.769531 288.683594 225.15625 289.328125 226.503906 C 289.972656 227.847656 290.726562 229.128906 291.589844 230.347656 C 292.449219 231.5625 293.410156 232.699219 294.464844 233.753906 C 295.519531 234.808594 296.652344 235.765625 297.871094 236.628906 C 299.089844 237.492188 300.371094 238.242188 301.714844 238.886719 C 303.058594 239.535156 304.449219 240.058594 305.882812 240.46875 C 307.316406 240.878906 308.773438 241.164062 310.257812 241.324219 C 317.429688 242.113281 326.6875 242.621094 338.640625 242.621094 C 326.691406 242.621094 317.429688 243.128906 310.257812 243.914062 C 308.773438 244.074219 307.316406 244.359375 305.882812 244.769531 C 304.449219 245.179688 303.058594 245.707031 301.714844 246.351562 C 300.371094 246.996094 299.089844 247.75 297.871094 248.609375 C 296.652344 249.472656 295.519531 250.429688 294.464844 251.484375 C 293.410156 252.539062 292.449219 253.675781 291.589844 254.894531 C 290.726562 256.109375 289.972656 257.390625 289.328125 258.738281 C 288.683594 260.082031 288.15625 261.472656 287.746094 262.90625 C 287.339844 264.339844 287.054688 265.796875 286.890625 267.28125 C 286.105469 274.453125 285.597656 283.710938 285.597656 295.664062 C 285.597656 283.710938 285.089844 274.453125 284.304688 267.28125 C 284.140625 265.796875 283.855469 264.339844 283.445312 262.90625 C 283.039062 261.472656 282.511719 260.082031 281.867188 258.738281 C 281.222656 257.390625 280.46875 256.109375 279.605469 254.894531 C 278.742188 253.675781 277.785156 252.539062 276.730469 251.484375 C 275.675781 250.433594 274.539062 249.472656 273.324219 248.613281 C 272.105469 247.75 270.824219 246.996094 269.480469 246.351562 C 268.136719 245.707031 266.746094 245.179688 265.3125 244.769531 C 263.878906 244.359375 262.417969 244.074219 260.9375 243.914062 C 253.761719 243.128906 244.503906 242.621094 232.550781 242.621094 C 244.503906 242.621094 253.761719 242.113281 260.9375 241.324219 C 262.417969 241.164062 263.878906 240.878906 265.3125 240.46875 C 266.746094 240.058594 268.136719 239.535156 269.480469 238.886719 C 270.824219 238.242188 272.105469 237.488281 273.324219 236.628906 C 274.539062 235.765625 275.675781 234.808594 276.730469 233.753906 C 277.785156 232.699219 278.742188 231.5625 279.605469 230.34375 C 280.46875 229.128906 281.222656 227.847656 281.867188 226.503906 C 282.511719 225.15625 283.039062 223.769531 283.445312 222.335938 C 283.855469 220.898438 284.140625 219.441406 284.304688 217.957031 C 285.089844 210.785156 285.597656 201.527344 285.597656 189.574219 C 285.597656 201.527344 286.105469 210.785156 286.890625 217.957031 Z M 286.890625 217.957031 "/></g><g style="fill:#5e17eb;fill-opacity:1;"><g transform="translate(0.0000045, 149.019137)"><path style="stroke:none" d="M 37.984375 -66.796875 C 42.242188 -66.796875 46.203125 -65.675781 49.859375 -63.4375 C 53.515625 -61.207031 56.488281 -58.207031 58.78125 -54.4375 C 61.070312 -50.675781 62.21875 -46.445312 62.21875 -41.75 L 62.21875 0 L 52.0625 0 L 52.0625 -41.75 C 52.0625 -45.894531 50.613281 -49.414062 47.71875 -52.3125 C 44.832031 -55.207031 41.316406 -56.65625 37.171875 -56.65625 C 33.015625 -56.65625 29.460938 -55.207031 26.515625 -52.3125 C 23.578125 -49.414062 22.109375 -45.894531 22.109375 -41.75 L 22.109375 0 L 11.953125 0 L 11.953125 -65.484375 L 22.109375 -65.484375 L 22.109375 -60.25 C 24.285156 -62.320312 26.710938 -63.929688 29.390625 -65.078125 C 32.066406 -66.222656 34.929688 -66.796875 37.984375 -66.796875 Z M 37.984375 -66.796875 "/></g></g><g style="fill:#5e17eb;fill-opacity:1;"><g transform="translate(73.352073, 149.019137)"><path style="stroke:none" d="M 41.421875 1.3125 C 35.203125 1.3125 29.5 -0.210938 24.3125 -3.265625 C 19.125 -6.328125 15.003906 -10.445312 11.953125 -15.625 C 8.898438 -20.8125 7.375 -26.519531 7.375 -32.75 C 7.375 -39.082031 8.898438 -44.8125 11.953125 -49.9375 C 15.003906 -55.070312 19.125 -59.164062 24.3125 -62.21875 C 29.5 -65.269531 35.203125 -66.796875 41.421875 -66.796875 C 47.753906 -66.796875 53.484375 -65.269531 58.609375 -62.21875 C 63.742188 -59.164062 67.835938 -55.070312 70.890625 -49.9375 C 73.953125 -44.8125 75.484375 -39.082031 75.484375 -32.75 C 75.484375 -26.519531 73.953125 -20.8125 70.890625 -15.625 C 67.835938 -10.445312 63.742188 -6.328125 58.609375 -3.265625 C 53.484375 -0.210938 47.753906 1.3125 41.421875 1.3125 Z M 41.421875 -8.84375 C 45.785156 -8.84375 49.769531 -9.90625 53.375 -12.03125 C 56.976562 -14.164062 59.867188 -17.0625 62.046875 -20.71875 C 64.234375 -24.375 65.328125 -28.382812 65.328125 -32.75 C 65.328125 -37.21875 64.234375 -41.253906 62.046875 -44.859375 C 59.867188 -48.460938 56.976562 -51.328125 53.375 -53.453125 C 49.769531 -55.585938 45.785156 -56.65625 41.421875 -56.65625 C 37.054688 -56.65625 33.046875 -55.585938 29.390625 -53.453125 C 25.734375 -51.328125 22.835938 -48.460938 20.703125 -44.859375 C 18.578125 -41.253906 17.515625 -37.21875 17.515625 -32.75 C 17.515625 -28.382812 18.578125 -24.375 20.703125 -20.71875 C 22.835938 -17.0625 25.734375 -14.164062 29.390625 -12.03125 C 33.046875 -9.90625 37.054688 -8.84375 41.421875 -8.84375 Z M 41.421875 -8.84375 "/></g></g><g style="fill:#5e17eb;fill-opacity:1;"><g transform="translate(156.20061, 149.019137)"><path style="stroke:none" d="M 42.078125 -55.671875 L 24.5625 -55.671875 L 24.5625 -18.5 C 24.5625 -15.445312 25.539062 -13.019531 27.5 -11.21875 C 29.46875 -9.414062 31.765625 -8.515625 34.390625 -8.515625 L 41.921875 -8.515625 L 41.921875 -0.8125 C 41.046875 -0.269531 39.785156 0.21875 38.140625 0.65625 C 36.503906 1.09375 34.867188 1.3125 33.234375 1.3125 C 29.847656 1.3125 26.734375 0.492188 23.890625 -1.140625 C 21.054688 -2.785156 18.765625 -5.023438 17.015625 -7.859375 C 15.273438 -10.691406 14.40625 -13.800781 14.40625 -17.1875 L 14.40625 -55.671875 L 3.4375 -55.671875 L 3.4375 -65.484375 L 14.40625 -65.484375 L 14.40625 -93.984375 L 24.5625 -93.984375 L 24.5625 -65.484375 L 42.078125 -65.484375 Z M 42.078125 -55.671875 "/></g></g><g style="fill:#5e17eb;fill-opacity:1;"><g transform="translate(203.682984, 149.019137)"><path style="stroke:none" d="M 75.484375 -33.40625 L 75.3125 -31.265625 L 17.515625 -31.265625 C 17.734375 -27.117188 18.929688 -23.328125 21.109375 -19.890625 C 23.296875 -16.453125 26.160156 -13.75 29.703125 -11.78125 C 33.253906 -9.820312 37.160156 -8.84375 41.421875 -8.84375 C 46.335938 -8.84375 50.785156 -10.148438 54.765625 -12.765625 C 58.753906 -15.390625 61.617188 -18.832031 63.359375 -23.09375 L 74.171875 -23.09375 C 72.753906 -18.394531 70.460938 -14.21875 67.296875 -10.5625 C 64.128906 -6.90625 60.332031 -4.007812 55.90625 -1.875 C 51.488281 0.25 46.660156 1.3125 41.421875 1.3125 C 35.203125 1.3125 29.5 -0.210938 24.3125 -3.265625 C 19.125 -6.328125 15.003906 -10.445312 11.953125 -15.625 C 8.898438 -20.8125 7.375 -26.519531 7.375 -32.75 C 7.375 -39.082031 8.898438 -44.8125 11.953125 -49.9375 C 15.003906 -55.070312 19.125 -59.164062 24.3125 -62.21875 C 29.5 -65.269531 35.203125 -66.796875 41.421875 -66.796875 C 47.640625 -66.796875 53.285156 -65.320312 58.359375 -62.375 C 63.441406 -59.425781 67.535156 -55.441406 70.640625 -50.421875 C 73.753906 -45.398438 75.367188 -39.726562 75.484375 -33.40625 Z M 41.421875 -56.65625 C 36.179688 -56.65625 31.515625 -55.148438 27.421875 -52.140625 C 23.328125 -49.140625 20.460938 -45.238281 18.828125 -40.4375 L 63.859375 -40.4375 C 62.328125 -45.238281 59.515625 -49.140625 55.421875 -52.140625 C 51.328125 -55.148438 46.660156 -56.65625 41.421875 -56.65625 Z M 41.421875 -56.65625 "/></g></g><g style="fill:#5e17eb;fill-opacity:1;"><g transform="translate(285.876611, 149.019137)"><path style="stroke:none" d="M 65.328125 -120.5 L 75.484375 -120.5 L 75.484375 0 L 65.328125 0 L 65.328125 -8.515625 C 62.273438 -5.453125 58.703125 -3.046875 54.609375 -1.296875 C 50.515625 0.441406 46.117188 1.3125 41.421875 1.3125 C 35.203125 1.3125 29.5 -0.210938 24.3125 -3.265625 C 19.125 -6.328125 15.003906 -10.445312 11.953125 -15.625 C 8.898438 -20.8125 7.375 -26.519531 7.375 -32.75 C 7.375 -39.082031 8.898438 -44.8125 11.953125 -49.9375 C 15.003906 -55.070312 19.125 -59.164062 24.3125 -62.21875 C 29.5 -65.269531 35.203125 -66.796875 41.421875 -66.796875 C 46.117188 -66.796875 50.515625 -65.921875 54.609375 -64.171875 C 58.703125 -62.429688 62.273438 -60.035156 65.328125 -56.984375 Z M 41.421875 -8.84375 C 45.785156 -8.84375 49.769531 -9.90625 53.375 -12.03125 C 56.976562 -14.164062 59.867188 -17.0625 62.046875 -20.71875 C 64.234375 -24.375 65.328125 -28.382812 65.328125 -32.75 C 65.328125 -37.21875 64.234375 -41.253906 62.046875 -44.859375 C 59.867188 -48.460938 56.976562 -51.328125 53.375 -53.453125 C 49.769531 -55.585938 45.785156 -56.65625 41.421875 -56.65625 C 37.054688 -56.65625 33.046875 -55.585938 29.390625 -53.453125 C 25.734375 -51.328125 22.835938 -48.460938 20.703125 -44.859375 C 18.578125 -41.253906 17.515625 -37.21875 17.515625 -32.75 C 17.515625 -28.382812 18.578125 -24.375 20.703125 -20.71875 C 22.835938 -17.0625 25.734375 -14.164062 29.390625 -12.03125 C 33.046875 -9.90625 37.054688 -8.84375 41.421875 -8.84375 Z M 41.421875 -8.84375 "/></g></g></g></svg>