<svg xmlns="http://www.w3.org/2000/svg" xmlns:xlink="http://www.w3.org/1999/xlink" width="500" zoomAndPan="magnify" viewBox="0 0 375 374.999991" height="500" preserveAspectRatio="xMidYMid meet" version="1.2">
<defs>
<clipPath id="246290f6b3"><path d="M 12.335938 89.617188 L 362.824219 89.617188 L 362.824219 169.800781 L 12.335938 169.800781 Z M 12.335938 89.617188 "/></clipPath>
<clipPath id="196385730e"><path d="M 362.664062 97.867188 L 362.664062 161.550781 C 362.664062 163.738281 361.796875 165.835938 360.25 167.382812 C 358.699219 168.929688 356.601562 169.800781 354.414062 169.800781 L 20.585938 169.800781 C 18.398438 169.800781 16.300781 168.929688 14.75 167.382812 C 13.203125 165.835938 12.335938 163.738281 12.335938 161.550781 L 12.335938 97.867188 C 12.335938 95.679688 13.203125 93.582031 14.75 92.035156 C 16.300781 90.484375 18.398438 89.617188 20.585938 89.617188 L 354.414062 89.617188 C 356.601562 89.617188 358.699219 90.484375 360.25 92.035156 C 361.796875 93.582031 362.664062 95.679688 362.664062 97.867188 Z M 362.664062 97.867188 "/></clipPath>
<clipPath id="3fdce3b1ac"><path d="M 285.273438 89.449219 L 362.671875 89.449219 L 362.671875 285.359375 L 285.273438 285.359375 Z M 285.273438 89.449219 "/></clipPath>
<clipPath id="c485443c8f"><path d="M 293.523438 89.59375 L 354.421875 89.59375 C 356.609375 89.59375 358.707031 90.464844 360.253906 92.011719 C 361.800781 93.558594 362.671875 95.65625 362.671875 97.84375 L 362.671875 277.109375 C 362.671875 279.296875 361.800781 281.394531 360.253906 282.945312 C 358.707031 284.492188 356.609375 285.359375 354.421875 285.359375 L 293.523438 285.359375 C 291.335938 285.359375 289.238281 284.492188 287.691406 282.945312 C 286.144531 281.394531 285.273438 279.296875 285.273438 277.109375 L 285.273438 97.84375 C 285.273438 95.65625 286.144531 93.558594 287.691406 92.011719 C 289.238281 90.464844 291.335938 89.59375 293.523438 89.59375 Z M 293.523438 89.59375 "/></clipPath>
<clipPath id="71413459a1"><path d="M 12 185.4375 L 273.910156 185.4375 L 273.910156 285.378906 L 12 285.378906 Z M 12 185.4375 "/></clipPath>
<clipPath id="49f0dca5da"><path d="M 12.324219 277.128906 L 12.324219 193.6875 C 12.324219 191.5 13.195312 189.402344 14.742188 187.855469 C 16.289062 186.308594 18.386719 185.4375 20.574219 185.4375 L 265.660156 185.4375 C 267.847656 185.4375 269.945312 186.308594 271.492188 187.855469 C 273.039062 189.402344 273.910156 191.5 273.910156 193.6875 L 273.910156 277.128906 C 273.910156 279.316406 273.039062 281.414062 271.492188 282.960938 C 269.945312 284.511719 267.847656 285.378906 265.660156 285.378906 L 20.574219 285.378906 C 18.386719 285.378906 16.289062 284.511719 14.742188 282.960938 C 13.195312 281.414062 12.324219 279.316406 12.324219 277.128906 Z M 12.324219 277.128906 "/></clipPath>
</defs>
<g id="2ac65e1e1a">
<g clip-rule="nonzero" clip-path="url(#246290f6b3)">
<g clip-rule="nonzero" clip-path="url(#196385730e)">
<path style=" stroke:none;fill-rule:nonzero;fill:#ffffff;fill-opacity:1;" d="M 12.335938 89.617188 L 362.511719 89.617188 L 362.511719 169.800781 L 12.335938 169.800781 Z M 12.335938 89.617188 "/>
</g>
</g>
<g clip-rule="nonzero" clip-path="url(#3fdce3b1ac)">
<g clip-rule="nonzero" clip-path="url(#c485443c8f)">
<path style=" stroke:none;fill-rule:nonzero;fill:#ffffff;fill-opacity:1;" d="M 285.273438 285.359375 L 285.273438 89.449219 L 362.671875 89.449219 L 362.671875 285.359375 Z M 285.273438 285.359375 "/>
</g>
</g>
<g clip-rule="nonzero" clip-path="url(#71413459a1)">
<g clip-rule="nonzero" clip-path="url(#49f0dca5da)">
<path style=" stroke:none;fill-rule:nonzero;fill:#ffffff;fill-opacity:1;" d="M 273.910156 285.378906 L 12.34375 285.378906 L 12.34375 185.4375 L 273.910156 185.4375 Z M 273.910156 285.378906 "/>
</g>
</g>
</g>
</svg>
